<svg width="48" height="48" viewBox="0 0 48 48" fill="none" xmlns="http://www.w3.org/2000/svg">
<path fill-rule="evenodd" clip-rule="evenodd" d="M28 26H41.2C41.6418 26 42 26.3582 42 26.8V38C42 40.2091 40.2091 42 38 42H26.8C26.3582 42 26 41.6418 26 41.2V28C26 26.8954 26.8954 26 28 26ZM30 30.8V37.2C30 37.6418 30.3582 38 30.8 38H37.2C37.6418 38 38 37.6418 38 37.2V30.8C38 30.3582 37.6418 30 37.2 30H30.8C30.3582 30 30 30.3582 30 30.8Z" fill="#8A8D90"/>
<path fill-rule="evenodd" clip-rule="evenodd" d="M10 6H21.2C21.6418 6 22 6.35817 22 6.8V20C22 21.1046 21.1046 22 20 22H6.8C6.35817 22 6 21.6418 6 21.2V10C6 7.79086 7.79086 6 10 6ZM10.8 18H17.2C17.6418 18 18 17.6418 18 17.2V10.8C18 10.3582 17.6418 10 17.2 10H10.8C10.3582 10 10 10.3582 10 10.8V17.2C10 17.6418 10.3582 18 10.8 18ZM6.8 26H20C21.1046 26 22 26.8954 22 28V41.2C22 41.6418 21.6418 42 21.2 42H10C7.79086 42 6 40.2091 6 38V26.8C6 26.3582 6.35817 26 6.8 26ZM10 30.8V37.2C10 37.6418 10.3582 38 10.8 38H17.2C17.6418 38 18 37.6418 18 37.2V30.8C18 30.3582 17.6418 30 17.2 30H10.8C10.3582 30 10 30.3582 10 30.8ZM26.8 6H38C40.2091 6 42 7.79086 42 10V21.2C42 21.6418 41.6418 22 41.2 22H28C26.8954 22 26 21.1046 26 20V6.8C26 6.35817 26.3582 6 26.8 6ZM30 10.8V17.2C30 17.6418 30.3582 18 30.8 18H37.2C37.6418 18 38 17.6418 38 17.2V10.8C38 10.3582 37.6418 10 37.2 10H30.8C30.3582 10 30 10.3582 30 10.8Z" fill="#8A8D90"/>
</svg>
