<svg width="48" height="48" viewBox="0 0 48 48" fill="none" xmlns="http://www.w3.org/2000/svg">
<path fill-rule="evenodd" clip-rule="evenodd" d="M12 26C10.8954 26 10 25.1046 10 24C10 22.8954 10.8954 22 12 22C13.1046 22 14 22.8954 14 24C14 25.1046 13.1046 26 12 26ZM36 26C34.8954 26 34 25.1046 34 24C34 22.8954 34.8954 22 36 22C37.1046 22 38 22.8954 38 24C38 25.1046 37.1046 26 36 26Z" fill="#8A8D90"/>
<path fill-rule="evenodd" clip-rule="evenodd" d="M9.85786 38.1421C2.04738 30.3316 2.04738 17.6684 9.85786 9.85786C17.6684 2.04738 30.3316 2.04738 38.1421 9.85786C45.9526 17.6684 45.9526 30.3316 38.1421 38.1421C30.3316 45.9526 17.6684 45.9526 9.85786 38.1421ZM12.6863 35.3137C18.9347 41.5621 29.0653 41.5621 35.3137 35.3137C41.5621 29.0653 41.5621 18.9347 35.3137 12.6863C29.0653 6.4379 18.9347 6.4379 12.6863 12.6863C6.4379 18.9347 6.4379 29.0653 12.6863 35.3137ZM32.5397 16.5481L27.3834 25.8294C27.0207 26.4823 26.4823 27.0207 25.8294 27.3834L16.5481 32.5397C16.1619 32.7543 15.6749 32.6151 15.4603 32.2289C15.3261 31.9873 15.3261 31.6935 15.4603 31.4519L20.6166 22.1706C20.9793 21.5177 21.5177 20.9793 22.1706 20.6166L31.4519 15.4603C31.8381 15.2457 32.3251 15.3849 32.5397 15.7711C32.6739 16.0127 32.6739 16.3065 32.5397 16.5481ZM24 14C22.8954 14 22 13.1046 22 12C22 10.8954 22.8954 10 24 10C25.1046 10 26 10.8954 26 12C26 13.1046 25.1046 14 24 14ZM24 38C22.8954 38 22 37.1046 22 36C22 34.8954 22.8954 34 24 34C25.1046 34 26 34.8954 26 36C26 37.1046 25.1046 38 24 38Z" fill="#8A8D90"/>
</svg>
