<svg width="48" height="48" viewBox="0 0 48 48" fill="none" xmlns="http://www.w3.org/2000/svg">
<path fill-rule="evenodd" clip-rule="evenodd" d="M6 6C7.10457 6 8 6.89543 8 8V13.2C8 13.6418 7.64183 14 7.2 14H4.8C4.35817 14 4 13.6418 4 13.2V8C4 6.89543 4.89543 6 6 6Z" fill="#8A8D90"/>
<path fill-rule="evenodd" clip-rule="evenodd" d="M8 38H42C43.1046 38 44 38.8954 44 40C44 41.1046 43.1046 42 42 42H5.2C4.53726 42 4 41.4627 4 40.8V16.8C4 16.3582 4.35817 16 4.8 16H7.2C7.64183 16 8 16.3582 8 16.8V38ZM36.1026 11.3675C36.4519 10.3197 37.5846 9.75334 38.6325 10.1026C39.6803 10.4519 40.2467 11.5846 39.8974 12.6325L34.4146 29.0807C33.9256 30.5477 32.3399 31.3406 30.8729 30.8516C30.2822 30.6547 29.774 30.2665 29.4286 29.7484L20.6941 16.6467L15.9157 32.5747C15.5983 33.6327 14.4833 34.233 13.4253 33.9157C12.3673 33.5983 11.767 32.4833 12.0843 31.4253L17.5957 13.0541C17.783 12.4298 18.1822 11.8904 18.7245 11.5289C20.0111 10.6711 21.7496 11.0188 22.6074 12.3055L31.3958 25.4881L36.1026 11.3675Z" fill="#7289DA"/>
</svg>
