<svg width="48" height="48" viewBox="0 0 48 48" fill="none" xmlns="http://www.w3.org/2000/svg">
<path fill-rule="evenodd" clip-rule="evenodd" d="M42 20V28C42 29.1046 41.1046 30 40 30H32C30.8954 30 30 29.1046 30 28V20C30 18.8954 30.8954 18 32 18H40C41.1046 18 42 18.8954 42 20ZM34 22.4V25.6C34 25.8209 34.1791 26 34.4 26H37.6C37.8209 26 38 25.8209 38 25.6V22.4C38 22.1791 37.8209 22 37.6 22H34.4C34.1791 22 34 22.1791 34 22.4Z" fill="#8A8D90"/>
<path fill-rule="evenodd" clip-rule="evenodd" d="M30 40H24C22.8954 40 22 39.1046 22 38V26.4C22 26.1791 21.8209 26 21.6 26H18V28C18 29.1046 17.1046 30 16 30H8C6.89543 30 6 29.1046 6 28V20C6 18.8954 6.89543 18 8 18H16C17.1046 18 18 18.8954 18 20V22H21.6C21.8209 22 22 21.8209 22 21.6V10C22 8.89543 22.8954 8 24 8H30V6C30 4.89543 30.8954 4 32 4H40C41.1046 4 42 4.89543 42 6V14C42 15.1046 41.1046 16 40 16H32C30.8954 16 30 15.1046 30 14V12H26.8C26.3582 12 26 12.3582 26 12.8V21.6C26 21.8209 26.1791 22 26.4 22H30V26H26.4C26.1791 26 26 26.1791 26 26.4V35.2C26 35.6418 26.3582 36 26.8 36H30V34C30 32.8954 30.8954 32 32 32H40C41.1046 32 42 32.8954 42 34V42C42 43.1046 41.1046 44 40 44H32C30.8954 44 30 43.1046 30 42V40ZM34 8.4V11.6C34 11.8209 34.1791 12 34.4 12H37.6C37.8209 12 38 11.8209 38 11.6V8.4C38 8.17909 37.8209 8 37.6 8H34.4C34.1791 8 34 8.17909 34 8.4ZM34 36.4V39.6C34 39.8209 34.1791 40 34.4 40H37.6C37.8209 40 38 39.8209 38 39.6V36.4C38 36.1791 37.8209 36 37.6 36H34.4C34.1791 36 34 36.1791 34 36.4ZM10 22.4V25.6C10 25.8209 10.1791 26 10.4 26H13.6C13.8209 26 14 25.8209 14 25.6V22.4C14 22.1791 13.8209 22 13.6 22H10.4C10.1791 22 10 22.1791 10 22.4Z" fill="#8A8D90"/>
</svg>
